<svg width="31" height="18" viewBox="0 0 31 18" fill="none" xmlns="http://www.w3.org/2000/svg">
<path d="M22.142 3.464H10.182C9.86646 2.93516 9.41885 2.49745 8.88309 2.1938C8.34733 1.89016 7.74182 1.73102 7.126 1.73201C6.6662 1.72752 6.21002 1.81368 5.78354 1.98557C5.35705 2.15745 4.96861 2.41169 4.64042 2.73375C4.31223 3.05581 4.05071 3.43939 3.87082 3.86256C3.69093 4.28574 3.59618 4.74021 3.592 5.20001C3.59019 5.81003 3.75514 6.40893 4.069 6.93201H1.769V0H0V17.322H1.767V12.122H28.384V17.322H30.151V6.929H26.47C26.2545 5.94314 25.7071 5.06115 24.9193 4.43045C24.1315 3.79976 23.1511 3.45859 22.142 3.464ZM22.142 5.196C22.8379 5.1904 23.5076 5.46094 24.0044 5.94832C24.5011 6.43569 24.7843 7.10014 24.792 7.79601V10.396H10.659V5.196H22.142ZM5.359 5.196C5.36997 4.73477 5.56091 4.29613 5.89099 3.9738C6.22108 3.65147 6.66414 3.47104 7.1255 3.47104C7.58686 3.47104 8.02992 3.65147 8.36001 3.9738C8.69009 4.29613 8.88103 4.73477 8.892 5.196V6.92801H7.125C6.66197 6.93202 6.21621 6.75245 5.88524 6.4286C5.55428 6.10476 5.36507 5.66302 5.359 5.20001V5.196ZM1.767 8.66H8.892V10.392H1.767V8.66ZM28.384 10.392H26.558V8.66H28.384V10.392Z" fill="#222222"/>
</svg>
