<svg width="23" height="23" viewBox="0 0 23 23" fill="none" xmlns="http://www.w3.org/2000/svg">
<path d="M0.189 22.143V20.313H2.476V15.2L1.293 16.386L0 15.093L7.05 8.043L14.099 15.093L12.806 16.386L11.624 15.2V20.31H13.91V22.14L0.189 22.143ZM7.964 17.569V20.313H9.794V13.374L7.05 10.629L4.305 13.374V20.313H6.135V17.569H7.964ZM14.635 18.215L15.928 16.922L17.568 18.562V6.056L15.929 7.7L14.636 6.4L16.276 4.76H3.769L5.41 6.4L4.116 7.7L0.268 3.848L4.116 0L5.41 1.293L3.77 2.933H16.276L14.636 1.293L15.929 0L22.329 6.4L21.039 7.7L19.4 6.056V18.563L21.04 16.923L22.334 18.216L18.485 22.064L14.635 18.215Z" fill="#222222"/>
</svg>
