<svg width="20" height="23" viewBox="0 0 20 23" fill="none" xmlns="http://www.w3.org/2000/svg">
<path d="M0 11.458V13.291C0 13.5342 0.0966122 13.7674 0.268583 13.9394C0.440554 14.1114 0.673796 14.208 0.917 14.208H13.75C13.9932 14.208 14.2264 14.1114 14.3984 13.9394C14.5704 13.7674 14.667 13.5342 14.667 13.291V11.458C14.6662 10.7289 14.3762 10.0299 13.8607 9.51433C13.3451 8.99878 12.6461 8.70879 11.917 8.708H10.542V6.417C10.542 6.1738 10.4454 5.94055 10.2734 5.76858C10.1014 5.59661 9.8682 5.5 9.625 5.5H8.25V2.75C8.25027 2.50688 8.34696 2.27379 8.51888 2.10188C8.69079 1.92996 8.92388 1.83326 9.167 1.833H16.5C16.7431 1.83326 16.9762 1.92996 17.1481 2.10188C17.32 2.27379 17.4167 2.50688 17.417 2.75V21.083C17.4249 21.3208 17.5249 21.5463 17.6959 21.7118C17.8669 21.8772 18.0955 21.9697 18.3335 21.9697C18.5715 21.9697 18.8001 21.8772 18.9711 21.7118C19.1421 21.5463 19.2421 21.3208 19.25 21.083V2.75C19.2492 2.0209 18.9592 1.32189 18.4437 0.806333C17.9281 0.29078 17.2291 0.000794085 16.5 0L9.167 0C8.4379 0.000794085 7.73889 0.29078 7.22333 0.806333C6.70778 1.32189 6.41779 2.0209 6.417 2.75V5.5H5.042C4.7988 5.5 4.56555 5.59661 4.39358 5.76858C4.22161 5.94055 4.125 6.1738 4.125 6.417V8.708H2.75C2.0209 8.70879 1.32189 8.99878 0.806333 9.51433C0.29078 10.0299 0.000794085 10.7289 0 11.458ZM5.958 7.333H8.708V8.708H5.958V7.333ZM1.833 11.458C1.83326 11.2149 1.92996 10.9818 2.10188 10.8099C2.27379 10.638 2.50688 10.5413 2.75 10.541H11.917C12.1601 10.5413 12.3932 10.638 12.5651 10.8099C12.737 10.9818 12.8337 11.2149 12.834 11.458V12.375H1.834L1.833 11.458Z" fill="#222222"/>
<path d="M7.334 19.25C7.0908 19.25 6.85756 19.3466 6.68559 19.5186C6.51362 19.6906 6.417 19.9238 6.417 20.167V21.084C6.41294 21.2069 6.43365 21.3294 6.47788 21.4441C6.52211 21.5589 6.58896 21.6635 6.67447 21.7519C6.75997 21.8403 6.86238 21.9106 6.9756 21.9586C7.08882 22.0066 7.21053 22.0313 7.3335 22.0313C7.45647 22.0313 7.57819 22.0066 7.69141 21.9586C7.80463 21.9106 7.90704 21.8403 7.99254 21.7519C8.07805 21.6635 8.1449 21.5589 8.18913 21.4441C8.23336 21.3294 8.25406 21.2069 8.25 21.084V20.167C8.25 19.924 8.15353 19.6909 7.98178 19.519C7.81002 19.347 7.57703 19.2503 7.334 19.25Z" fill="#222222"/>
<path d="M8.24999 16.042C8.24214 15.8042 8.14213 15.5787 7.97112 15.4132C7.8001 15.2478 7.57145 15.1553 7.33349 15.1553C7.09553 15.1553 6.86689 15.2478 6.69587 15.4132C6.52485 15.5787 6.42485 15.8042 6.41699 16.042V16.959C6.42485 17.1968 6.52485 17.4223 6.69587 17.5878C6.86689 17.7532 7.09553 17.8457 7.33349 17.8457C7.57145 17.8457 7.8001 17.7532 7.97112 17.5878C8.14213 17.4223 8.24214 17.1968 8.24999 16.959V16.042Z" fill="#222222"/>
<path d="M1.83302 16.959V21.084C1.84088 21.3218 1.94088 21.5473 2.1119 21.7127C2.28292 21.8782 2.51156 21.9707 2.74952 21.9707C2.98748 21.9707 3.21612 21.8782 3.38714 21.7127C3.55816 21.5473 3.65816 21.3218 3.66602 21.084V16.959C3.67008 16.8361 3.64938 16.7136 3.60515 16.5989C3.56092 16.4841 3.49406 16.3795 3.40855 16.2911C3.32305 16.2027 3.22064 16.1324 3.10742 16.0844C2.9942 16.0364 2.87249 16.0117 2.74952 16.0117C2.62655 16.0117 2.50483 16.0364 2.39162 16.0844C2.2784 16.1324 2.17599 16.2027 2.09048 16.2911C2.00498 16.3795 1.93812 16.4841 1.89389 16.5989C1.84966 16.7136 1.82896 16.8361 1.83302 16.959Z" fill="#222222"/>
<path d="M11 16.042V21.084C11.0079 21.3218 11.1079 21.5473 11.2789 21.7128C11.4499 21.8782 11.6785 21.9707 11.9165 21.9707C12.1545 21.9707 12.3831 21.8782 12.5541 21.7128C12.7251 21.5473 12.8251 21.3218 12.833 21.084V16.042C12.8251 15.8042 12.7251 15.5787 12.5541 15.4132C12.3831 15.2478 12.1545 15.1553 11.9165 15.1553C11.6785 15.1553 11.4499 15.2478 11.2789 15.4132C11.1079 15.5787 11.0079 15.8042 11 16.042Z" fill="#222222"/>
</svg>
