<svg width="32" height="22" viewBox="0 0 32 22" fill="none" xmlns="http://www.w3.org/2000/svg">
<path d="M18.478 12.25H17.807V8.99797C17.8052 7.98858 17.4036 7.02102 16.6901 6.30699C15.9766 5.59296 15.0094 5.19062 14 5.18797C13.6766 5.18663 13.3544 5.22834 13.042 5.31198C12.7125 4.71751 12.2298 4.22207 11.6442 3.87711C11.0585 3.53214 10.3912 3.35022 9.7115 3.35022C9.0318 3.35022 8.36449 3.53214 7.77884 3.87711C7.19319 4.22207 6.71054 4.71751 6.381 5.31198C6.06858 5.22834 5.74642 5.18663 5.423 5.18797C4.41349 5.18983 3.44606 5.59257 2.73345 6.30762C2.02084 7.02267 1.62141 7.99147 1.623 9.00098V12.25H0.88C0.646609 12.25 0.422778 12.3427 0.257746 12.5077C0.092714 12.6728 0 12.8966 0 13.13L0 17.914C0 18.1474 0.092714 18.3712 0.257746 18.5362C0.422778 18.7013 0.646609 18.794 0.88 18.794H0.965V20.95C0.965 21.0655 0.987762 21.18 1.03199 21.2867C1.07621 21.3935 1.14103 21.4905 1.22275 21.5722C1.30446 21.6539 1.40147 21.7188 1.50824 21.763C1.61501 21.8072 1.72944 21.83 1.845 21.83C1.96056 21.83 2.075 21.8072 2.18176 21.763C2.28853 21.7188 2.38554 21.6539 2.46725 21.5722C2.54897 21.4905 2.61379 21.3935 2.65801 21.2867C2.70224 21.18 2.725 21.0655 2.725 20.95V18.793H16.666V20.95C16.666 21.1834 16.7587 21.4072 16.9237 21.5722C17.0888 21.7373 17.3126 21.83 17.546 21.83C17.7794 21.83 18.0032 21.7373 18.1683 21.5722C18.3333 21.4072 18.426 21.1834 18.426 20.95V18.793H18.491C18.7244 18.793 18.9482 18.7003 19.1133 18.5352C19.2783 18.3702 19.371 18.1464 19.371 17.913V13.122C19.3638 12.8894 19.2667 12.6686 19.1002 12.506C18.9337 12.3434 18.7107 12.2517 18.478 12.25ZM1.753 17.038V14.007H17.6V17.044H1.753V17.038ZM12.475 12.25H6.942V11.266C6.942 11.129 6.949 10.836 7.418 10.836H12C12.417 10.836 12.476 11.123 12.476 11.266L12.475 12.25ZM14.235 12.25V11.07C14.1907 10.5036 13.9252 9.97744 13.4958 9.60538C13.0665 9.23332 12.5079 9.04528 11.941 9.08197H7.489C6.92207 9.04528 6.3635 9.23332 5.93417 9.60538C5.50484 9.97744 5.23929 10.5036 5.195 11.07V12.25H3.37V8.99797C3.3692 8.45363 3.58419 7.93117 3.96788 7.54504C4.35157 7.15892 4.87266 6.94062 5.417 6.93797C5.77115 6.93766 6.11927 7.02969 6.427 7.20497C6.54488 7.27234 6.67674 7.31155 6.81228 7.31953C6.94782 7.32752 7.08337 7.30407 7.20836 7.25102C7.33334 7.19797 7.44437 7.11675 7.53277 7.0137C7.62118 6.91065 7.68457 6.78858 7.718 6.65698C7.82929 6.21226 8.08602 5.81747 8.4474 5.53539C8.80877 5.2533 9.25406 5.10008 9.7125 5.10008C10.1709 5.10008 10.6162 5.2533 10.9776 5.53539C11.339 5.81747 11.5957 6.21226 11.707 6.65698C11.739 6.78883 11.8017 6.91125 11.89 7.0143C11.9783 7.11734 12.0896 7.19808 12.215 7.24997C12.3399 7.3039 12.4757 7.32784 12.6115 7.31985C12.7473 7.31187 12.8793 7.27218 12.997 7.20398C13.3047 7.02869 13.6528 6.93667 14.007 6.93698C14.5523 6.93831 15.0748 7.15598 15.4597 7.54222C15.8446 7.92846 16.0605 8.45168 16.06 8.99698V12.25H14.235Z" fill="#222222"/>
<path d="M28.1248 11.959C28.7185 11.959 29.1998 11.4777 29.1998 10.884C29.1998 10.2903 28.7185 9.80896 28.1248 9.80896C27.5311 9.80896 27.0498 10.2903 27.0498 10.884C27.0498 11.4777 27.5311 11.959 28.1248 11.959Z" fill="#222222"/>
<path d="M31.8728 21.77H20.9878V0H31.8728V21.77ZM22.6828 20.075H30.1828V1.69499H22.6828V20.075Z" fill="#222222"/>
</svg>
