<svg width="29" height="22" viewBox="0 0 29 22" fill="none" xmlns="http://www.w3.org/2000/svg">
<path d="M21.267 22C20.5939 21.9992 19.9485 21.7314 19.4725 21.2555C18.9966 20.7795 18.7288 20.1341 18.728 19.461V18.615H10.154V19.461C10.1532 20.1341 9.88546 20.7795 9.40947 21.2555C8.93349 21.7314 8.28815 21.9992 7.61501 22H5.92301C5.24987 21.9992 4.60452 21.7314 4.12854 21.2555C3.65256 20.7795 3.3848 20.1341 3.38401 19.461V18.615H2.53901C1.86604 18.6142 1.22085 18.3466 0.744893 17.8708C0.268939 17.3951 0.00106632 16.75 7.83088e-06 16.077V11C-0.00210911 9.90405 0.425059 8.85084 1.19001 8.066C0.891293 7.87871 0.634915 7.63118 0.437243 7.33923C0.239571 7.04728 0.104947 6.71731 0.0419685 6.37041C-0.0210103 6.0235 -0.0109608 5.66727 0.0714754 5.32447C0.153912 4.98167 0.306923 4.65982 0.52074 4.37948C0.734558 4.09913 1.00448 3.86646 1.31328 3.6963C1.62208 3.52614 1.96297 3.42224 2.31418 3.39124C2.66539 3.36024 3.0192 3.40281 3.35304 3.51623C3.68687 3.62966 3.99338 3.81145 4.25301 4.05L4.78401 1.923C4.92145 1.37341 5.23876 0.885571 5.68543 0.537111C6.13211 0.18865 6.68249 -0.000414009 7.24901 6.80727e-07H21.64C22.2059 -0.000170231 22.7556 0.18908 23.2014 0.53759C23.6472 0.8861 23.9636 1.37381 24.1 1.923L24.63 4.05C24.8901 3.81507 25.1961 3.63662 25.5287 3.5259C25.8613 3.41518 26.2132 3.3746 26.5622 3.40673C26.9112 3.43886 27.2498 3.54299 27.5566 3.71255C27.8634 3.88212 28.1316 4.11343 28.3445 4.3919C28.5574 4.67036 28.7102 4.98993 28.7934 5.33044C28.8765 5.67094 28.8882 6.02498 28.8276 6.37022C28.7671 6.71546 28.6356 7.0444 28.4415 7.33627C28.2474 7.62814 27.9949 7.87661 27.7 8.066C28.4605 8.8532 28.8848 9.90546 28.883 11V16.077C28.8819 16.7501 28.6141 17.3953 28.1382 17.8712C27.6623 18.3471 27.0171 18.6149 26.344 18.616H25.5V19.462C25.4989 20.1351 25.2309 20.7804 24.7548 21.2562C24.2786 21.732 23.6331 21.9995 22.96 22H21.267ZM20.421 19.461C20.4207 19.5722 20.4424 19.6824 20.4848 19.7852C20.5273 19.888 20.5896 19.9815 20.6681 20.0602C20.7467 20.1388 20.8401 20.2012 20.9429 20.2438C21.0456 20.2863 21.1558 20.3081 21.267 20.308H22.96C23.0712 20.3081 23.1814 20.2863 23.2841 20.2438C23.3869 20.2012 23.4803 20.1388 23.5589 20.0602C23.6375 19.9815 23.6998 19.888 23.7422 19.7852C23.7846 19.6824 23.8063 19.5722 23.806 19.461V18.615H20.421V19.461ZM5.07701 19.461C5.07674 19.5722 5.09844 19.6824 5.14085 19.7852C5.18326 19.888 5.24555 19.9815 5.32415 20.0602C5.40274 20.1388 5.4961 20.2012 5.59887 20.2438C5.70164 20.2863 5.81179 20.3081 5.92301 20.308H7.61501C7.72631 20.3083 7.83657 20.2865 7.93945 20.2441C8.04233 20.2016 8.13581 20.1392 8.21452 20.0605C8.29322 19.9818 8.3556 19.8883 8.39807 19.7854C8.44054 19.6826 8.46227 19.5723 8.46201 19.461V18.615H5.07701V19.461ZM1.69201 11V16.077C1.69188 16.1881 1.71367 16.2982 1.75614 16.4009C1.79861 16.5036 1.86092 16.5969 1.9395 16.6755C2.01809 16.7541 2.1114 16.8164 2.2141 16.8589C2.3168 16.9013 2.42687 16.9231 2.53801 16.923H26.344C26.4551 16.9231 26.5652 16.9013 26.6679 16.8589C26.7706 16.8164 26.8639 16.7541 26.9425 16.6755C27.0211 16.5969 27.0834 16.5036 27.1259 16.4009C27.1683 16.2982 27.1901 16.1881 27.19 16.077V11C27.1889 10.3269 26.9211 9.68175 26.4452 9.20582C25.9693 8.7299 25.3241 8.46206 24.651 8.461H4.23101C3.55795 8.46206 2.91276 8.7299 2.43683 9.20582C1.96091 9.68175 1.69307 10.3269 1.69201 11ZM25.5 5.923C25.5002 6.09028 25.55 6.25375 25.6431 6.39274C25.7362 6.53173 25.8683 6.64001 26.0229 6.70389C26.1776 6.76777 26.3476 6.78438 26.5117 6.75162C26.6757 6.71887 26.8264 6.63821 26.9446 6.51986C27.0628 6.4015 27.1433 6.25076 27.1758 6.08668C27.2084 5.9226 27.1916 5.75255 27.1275 5.59802C27.0635 5.44349 26.955 5.31142 26.8159 5.21851C26.6768 5.12559 26.5133 5.076 26.346 5.076C26.2348 5.07587 26.1246 5.09769 26.0219 5.14023C25.9191 5.18276 25.8257 5.24516 25.7471 5.32385C25.6685 5.40254 25.6063 5.49597 25.5639 5.59879C25.5214 5.7016 25.4997 5.81178 25.5 5.923ZM22.042 6.769H23.58L22.469 2.335C22.4229 2.15136 22.3168 1.98837 22.1675 1.87188C22.0182 1.7554 21.8344 1.69209 21.645 1.692H7.24901C7.05966 1.69209 6.87577 1.7554 6.7265 1.87188C6.57723 1.98837 6.47112 2.15136 6.42501 2.335L5.31401 6.769H13.691C13.8998 5.81025 14.4302 4.95174 15.1942 4.33601C15.9582 3.72027 16.9098 3.38435 17.891 3.384C18.8663 3.38494 19.8114 3.72215 20.567 4.33877C21.3226 4.9554 21.8425 5.81371 22.039 6.769H22.042ZM15.442 6.769H20.277C20.1024 6.27404 19.7786 5.84542 19.3502 5.5422C18.9218 5.23899 18.4099 5.0761 17.885 5.076C17.3544 5.0792 16.8371 5.24253 16.4008 5.5446C15.9646 5.84668 15.6297 6.27343 15.44 6.769H15.442ZM1.69201 5.923C1.69221 6.09028 1.74199 6.25375 1.83507 6.39274C1.92815 6.53173 2.06035 6.64001 2.21495 6.70389C2.36955 6.76777 2.53962 6.78438 2.70367 6.75162C2.86771 6.71887 3.01836 6.63821 3.13657 6.51986C3.25479 6.4015 3.33526 6.25076 3.36782 6.08668C3.40039 5.9226 3.38357 5.75255 3.31951 5.59802C3.25545 5.44349 3.14702 5.31142 3.00792 5.21851C2.86881 5.12559 2.70529 5.076 2.53801 5.076C2.42679 5.07587 2.31664 5.09769 2.21387 5.14023C2.1111 5.18276 2.01775 5.24516 1.93915 5.32385C1.86055 5.40254 1.79826 5.49597 1.75585 5.59879C1.71344 5.7016 1.69174 5.81178 1.69201 5.923ZM20.421 12.692C20.421 12.1898 20.5699 11.6989 20.8489 11.2814C21.1279 10.8639 21.5244 10.5384 21.9884 10.3463C22.4523 10.1541 22.9628 10.1038 23.4553 10.2018C23.9479 10.2998 24.4003 10.5416 24.7554 10.8967C25.1104 11.2517 25.3523 11.7041 25.4502 12.1967C25.5482 12.6892 25.4979 13.1997 25.3057 13.6636C25.1136 14.1276 24.7881 14.5241 24.3706 14.8031C23.9531 15.0821 23.4622 15.231 22.96 15.231C22.2869 15.2302 21.6415 14.9625 21.1655 14.4865C20.6896 14.0105 20.4218 13.3651 20.421 12.692ZM22.113 12.692C22.113 12.8593 22.1626 13.0228 22.2555 13.1619C22.3484 13.301 22.4805 13.4094 22.635 13.4735C22.7896 13.5376 22.9596 13.5544 23.1237 13.5218C23.2878 13.4893 23.4385 13.4088 23.5569 13.2906C23.6752 13.1723 23.7559 13.0217 23.7886 12.8577C23.8214 12.6936 23.8048 12.5235 23.7409 12.3689C23.677 12.2143 23.5687 12.0821 23.4297 11.9891C23.2908 11.896 23.1273 11.8462 22.96 11.846C22.8488 11.8457 22.7386 11.8674 22.6358 11.9098C22.533 11.9523 22.4395 12.0145 22.3609 12.0931C22.2822 12.1717 22.2198 12.2651 22.1772 12.3679C22.1347 12.4706 22.1129 12.5808 22.113 12.692ZM17.036 14.385V12.692C17.036 12.4676 17.1251 12.2524 17.2838 12.0938C17.4424 11.9351 17.6576 11.846 17.882 11.846C18.1064 11.846 18.3216 11.9351 18.4802 12.0938C18.6389 12.2524 18.728 12.4676 18.728 12.692V14.385C18.728 14.6094 18.6389 14.8246 18.4802 14.9832C18.3216 15.1419 18.1064 15.231 17.882 15.231C17.6576 15.231 17.4424 15.1419 17.2838 14.9832C17.1251 14.8246 17.036 14.6094 17.036 14.385ZM13.595 14.385V12.692C13.595 12.4676 13.6841 12.2524 13.8428 12.0938C14.0015 11.9351 14.2166 11.846 14.441 11.846C14.6654 11.846 14.8806 11.9351 15.0392 12.0938C15.1979 12.2524 15.287 12.4676 15.287 12.692V14.385C15.287 14.6094 15.1979 14.8246 15.0392 14.9832C14.8806 15.1419 14.6654 15.231 14.441 15.231C14.2166 15.231 14.0015 15.1419 13.8428 14.9832C13.6841 14.8246 13.595 14.6094 13.595 14.385ZM10.153 14.385V12.692C10.153 12.4675 10.2422 12.2522 10.4009 12.0934C10.5597 11.9347 10.775 11.8455 10.9995 11.8455C11.224 11.8455 11.4393 11.9347 11.5981 12.0934C11.7568 12.2522 11.846 12.4675 11.846 12.692V14.385C11.846 14.6095 11.7568 14.8248 11.5981 14.9836C11.4393 15.1423 11.224 15.2315 10.9995 15.2315C10.775 15.2315 10.5597 15.1423 10.4009 14.9836C10.2422 14.8248 10.153 14.6095 10.153 14.385ZM3.38401 12.692C3.38401 12.1898 3.53292 11.6989 3.81191 11.2814C4.0909 10.8639 4.48743 10.5384 4.95137 10.3463C5.41532 10.1541 5.92582 10.1038 6.41834 10.2018C6.91086 10.2998 7.36327 10.5416 7.71835 10.8967C8.07344 11.2517 8.31525 11.7041 8.41322 12.1967C8.51119 12.6892 8.46091 13.1997 8.26874 13.6636C8.07657 14.1276 7.75114 14.5241 7.3336 14.8031C6.91606 15.0821 6.42517 15.231 5.92301 15.231C5.24995 15.2299 4.60476 14.9621 4.12883 14.4862C3.65291 14.0103 3.38507 13.3651 3.38401 12.692ZM5.07701 12.692C5.07701 12.8593 5.12662 13.0229 5.21958 13.162C5.31254 13.3011 5.44467 13.4096 5.59926 13.4736C5.75384 13.5376 5.92395 13.5544 6.08805 13.5217C6.25216 13.4891 6.4029 13.4085 6.52122 13.2902C6.63953 13.1719 6.72011 13.0212 6.75275 12.857C6.7854 12.6929 6.76864 12.5228 6.70461 12.3683C6.64058 12.2137 6.53214 12.0815 6.39302 11.9886C6.2539 11.8956 6.09033 11.846 5.92301 11.846C5.81187 11.8459 5.7018 11.8677 5.5991 11.9101C5.4964 11.9526 5.40309 12.0149 5.3245 12.0935C5.24592 12.1721 5.18361 12.2654 5.14114 12.3681C5.09867 12.4708 5.07688 12.5809 5.07701 12.692Z" fill="#222222"/>
</svg>
