<svg width="22" height="23" viewBox="0 0 22 23" fill="none" xmlns="http://www.w3.org/2000/svg">
<path d="M21.059 0H6.754C6.49325 0.001574 6.24362 0.105856 6.05924 0.290239C5.87486 0.474622 5.77057 0.724247 5.769 0.985V9.99H0.985C0.724247 9.99157 0.474622 10.0959 0.290239 10.2802C0.105856 10.4646 0.00157401 10.7142 6.49907e-09 10.975L6.49907e-09 21.012C-2.97765e-05 21.2777 0.102305 21.5332 0.285741 21.7253C0.469177 21.9175 0.719608 22.0317 0.985 22.044H21.012C21.2733 22.0432 21.5237 21.9393 21.7087 21.7548C21.8937 21.5703 21.9984 21.3203 22 21.059V0.985C22.0045 0.858119 21.9836 0.731612 21.9385 0.612939C21.8934 0.494267 21.825 0.385832 21.7373 0.294029C21.6495 0.202226 21.5444 0.128913 21.4279 0.0784146C21.3114 0.027916 21.186 0.00125365 21.059 0ZM7.786 2.017H20.074V9.333L16.322 7.223C16.1742 7.13089 16.0036 7.08207 15.8295 7.08207C15.6554 7.08207 15.4848 7.13089 15.337 7.223L10.318 9.99H7.833L7.786 2.017ZM2.017 12.007H9.517V20.027H2.017V12.007ZM20.027 20.027H11.538V11.585L15.806 9.24L20.074 11.585L20.027 20.027Z" fill="#222222"/>
<path d="M5.15308 13.159H3.52008C3.48606 13.157 3.452 13.1622 3.42013 13.1743C3.38827 13.1863 3.35933 13.2051 3.33524 13.2292C3.31114 13.2533 3.29242 13.2822 3.28033 13.3141C3.26824 13.3459 3.26304 13.38 3.26508 13.414V15.047C3.26304 15.081 3.26824 15.1151 3.28033 15.147C3.29242 15.1788 3.31114 15.2077 3.33524 15.2318C3.35933 15.2559 3.38827 15.2747 3.42013 15.2868C3.452 15.2988 3.48606 15.304 3.52008 15.302H5.15308C5.1871 15.304 5.22117 15.2988 5.25303 15.2868C5.28489 15.2747 5.31383 15.2559 5.33793 15.2318C5.36202 15.2077 5.38074 15.1788 5.39283 15.147C5.40492 15.1151 5.41012 15.081 5.40808 15.047V13.414C5.45908 13.259 5.30608 13.159 5.15308 13.159Z" fill="#222222"/>
<path d="M8.35084 13.159H6.71783C6.68382 13.157 6.64975 13.1622 6.61789 13.1743C6.58602 13.1863 6.55709 13.2051 6.53299 13.2292C6.50889 13.2533 6.49018 13.2822 6.47809 13.3141C6.46599 13.3459 6.46079 13.38 6.46283 13.414V15.047C6.46079 15.081 6.46599 15.1151 6.47809 15.147C6.49018 15.1788 6.50889 15.2077 6.53299 15.2318C6.55709 15.2559 6.58602 15.2747 6.61789 15.2868C6.64975 15.2988 6.68382 15.304 6.71783 15.302H8.35084C8.38485 15.304 8.41892 15.2988 8.45078 15.2868C8.48265 15.2747 8.51158 15.2559 8.53568 15.2318C8.55978 15.2077 8.57849 15.1788 8.59059 15.147C8.60268 15.1151 8.60788 15.081 8.60583 15.047V13.414C8.65683 13.259 8.50384 13.159 8.35084 13.159Z" fill="#222222"/>
<path d="M5.15308 16.329H3.52008C3.48606 16.327 3.452 16.3322 3.42013 16.3443C3.38827 16.3564 3.35933 16.3751 3.33524 16.3992C3.31114 16.4233 3.29242 16.4522 3.28033 16.4841C3.26824 16.516 3.26304 16.55 3.26508 16.584V18.217C3.26304 18.2511 3.26824 18.2851 3.28033 18.317C3.29242 18.3489 3.31114 18.3778 3.33524 18.4019C3.35933 18.426 3.38827 18.4447 3.42013 18.4568C3.452 18.4689 3.48606 18.4741 3.52008 18.472H5.15308C5.1871 18.4741 5.22117 18.4689 5.25303 18.4568C5.28489 18.4447 5.31383 18.426 5.33793 18.4019C5.36202 18.3778 5.38074 18.3489 5.39283 18.317C5.40492 18.2851 5.41012 18.2511 5.40808 18.217V16.584C5.45908 16.429 5.30608 16.329 5.15308 16.329Z" fill="#222222"/>
<path d="M8.35084 16.329H6.71783C6.68382 16.327 6.64975 16.3322 6.61789 16.3443C6.58602 16.3564 6.55709 16.3751 6.53299 16.3992C6.50889 16.4233 6.49018 16.4522 6.47809 16.4841C6.46599 16.516 6.46079 16.55 6.46283 16.584V18.217C6.46079 18.2511 6.46599 18.2851 6.47809 18.317C6.49018 18.3489 6.50889 18.3778 6.53299 18.4019C6.55709 18.426 6.58602 18.4447 6.61789 18.4568C6.64975 18.4689 6.68382 18.4741 6.71783 18.472H8.35084C8.38485 18.4741 8.41892 18.4689 8.45078 18.4568C8.48265 18.4447 8.51158 18.426 8.53568 18.4019C8.55978 18.3778 8.57849 18.3489 8.59059 18.317C8.60268 18.2851 8.60788 18.2511 8.60583 18.217V16.584C8.65683 16.429 8.50384 16.329 8.35084 16.329Z" fill="#222222"/>
<path d="M14.8142 13.159H13.1812C13.1472 13.157 13.1131 13.1622 13.0813 13.1743C13.0494 13.1863 13.0205 13.2051 12.9964 13.2292C12.9723 13.2533 12.9536 13.2822 12.9415 13.3141C12.9294 13.3459 12.9242 13.38 12.9262 13.414V15.047C12.9242 15.081 12.9294 15.1151 12.9415 15.147C12.9536 15.1788 12.9723 15.2077 12.9964 15.2318C13.0205 15.2559 13.0494 15.2747 13.0813 15.2868C13.1131 15.2988 13.1472 15.304 13.1812 15.302H14.8142C14.8482 15.304 14.8823 15.2988 14.9142 15.2868C14.946 15.2747 14.975 15.2559 14.9991 15.2318C15.0232 15.2077 15.0419 15.1788 15.054 15.147C15.0661 15.1151 15.0713 15.081 15.0692 15.047V13.414C15.0713 13.38 15.0661 13.3459 15.054 13.3141C15.0419 13.2822 15.0232 13.2533 14.9991 13.2292C14.975 13.2051 14.946 13.1863 14.9142 13.1743C14.8823 13.1622 14.8482 13.157 14.8142 13.159Z" fill="#222222"/>
<path d="M16.6679 15.348H18.3009C18.3349 15.3501 18.369 15.3449 18.4008 15.3328C18.4327 15.3207 18.4616 15.302 18.4857 15.2779C18.5098 15.2538 18.5285 15.2248 18.5406 15.193C18.5527 15.1611 18.5579 15.127 18.5559 15.093V13.46C18.5579 13.426 18.5527 13.3919 18.5406 13.3601C18.5285 13.3282 18.5098 13.2993 18.4857 13.2752C18.4616 13.2511 18.4327 13.2324 18.4008 13.2203C18.369 13.2082 18.3349 13.203 18.3009 13.205H16.6679C16.6339 13.203 16.5998 13.2082 16.5679 13.2203C16.5361 13.2324 16.5071 13.2511 16.483 13.2752C16.4589 13.2993 16.4402 13.3282 16.4281 13.3601C16.416 13.3919 16.4108 13.426 16.4129 13.46V15.042C16.4052 15.0795 16.4061 15.1182 16.4154 15.1553C16.4248 15.1924 16.4423 15.2269 16.4668 15.2563C16.4913 15.2857 16.5221 15.3092 16.5569 15.3251C16.5917 15.341 16.6296 15.3488 16.6679 15.348Z" fill="#222222"/>
<path d="M14.8142 16.329H13.1812C13.1472 16.327 13.1131 16.3322 13.0813 16.3443C13.0494 16.3564 13.0205 16.3751 12.9964 16.3992C12.9723 16.4233 12.9536 16.4522 12.9415 16.4841C12.9294 16.516 12.9242 16.55 12.9262 16.584V18.217C12.9242 18.2511 12.9294 18.2851 12.9415 18.317C12.9536 18.3489 12.9723 18.3778 12.9964 18.4019C13.0205 18.426 13.0494 18.4447 13.0813 18.4568C13.1131 18.4689 13.1472 18.4741 13.1812 18.472H14.8142C14.8482 18.4741 14.8823 18.4689 14.9142 18.4568C14.946 18.4447 14.975 18.426 14.9991 18.4019C15.0232 18.3778 15.0419 18.3489 15.054 18.317C15.0661 18.2851 15.0713 18.2511 15.0692 18.217V16.584C15.0713 16.55 15.0661 16.516 15.054 16.4841C15.0419 16.4522 15.0232 16.4233 14.9991 16.3992C14.975 16.3751 14.946 16.3564 14.9142 16.3443C14.8823 16.3322 14.8482 16.327 14.8142 16.329Z" fill="#222222"/>
<path d="M16.6678 18.5229H18.3008C18.3349 18.525 18.3689 18.5198 18.4008 18.5077C18.4326 18.4956 18.4616 18.4769 18.4857 18.4528C18.5098 18.4287 18.5285 18.3998 18.5406 18.3679C18.5527 18.336 18.5579 18.302 18.5558 18.2679V16.6349C18.5579 16.6009 18.5527 16.5669 18.5406 16.535C18.5285 16.5031 18.5098 16.4742 18.4857 16.4501C18.4616 16.426 18.4326 16.4073 18.4008 16.3952C18.3689 16.3831 18.3349 16.3779 18.3008 16.3799H16.6678C16.6338 16.3779 16.5998 16.3831 16.5679 16.3952C16.536 16.4073 16.5071 16.426 16.483 16.4501C16.4589 16.4742 16.4402 16.5031 16.4281 16.535C16.416 16.5669 16.4108 16.6009 16.4128 16.6349V18.2679C16.3618 18.3699 16.5148 18.5229 16.6678 18.5229Z" fill="#222222"/>
<path d="M9.69381 5.77305H11.3268C11.3608 5.77509 11.3949 5.76989 11.4268 5.7578C11.4586 5.7457 11.4876 5.72699 11.5117 5.70289C11.5357 5.67879 11.5545 5.64986 11.5666 5.61799C11.5786 5.58613 11.5838 5.55207 11.5818 5.51805V3.83405C11.5838 3.80003 11.5786 3.76596 11.5666 3.7341C11.5545 3.70224 11.5357 3.6733 11.5117 3.6492C11.4876 3.6251 11.4586 3.60639 11.4268 3.5943C11.3949 3.5822 11.3608 3.577 11.3268 3.57905H9.69381C9.65979 3.577 9.62572 3.5822 9.59386 3.5943C9.56199 3.60639 9.53306 3.6251 9.50896 3.6492C9.48486 3.6733 9.46615 3.70224 9.45406 3.7341C9.44196 3.76596 9.43676 3.80003 9.43881 3.83405V5.46705C9.43319 5.54119 9.45668 5.61461 9.50428 5.67174C9.55188 5.72886 9.61986 5.7652 9.69381 5.77305Z" fill="#222222"/>
<path d="M13.1811 5.77305H14.8141C14.8481 5.77509 14.8822 5.76989 14.9141 5.7578C14.9459 5.7457 14.9749 5.72699 14.999 5.70289C15.0231 5.67879 15.0418 5.64986 15.0539 5.61799C15.066 5.58613 15.0712 5.55207 15.0691 5.51805V3.83405C15.0712 3.80003 15.066 3.76596 15.0539 3.7341C15.0418 3.70224 15.0231 3.6733 14.999 3.6492C14.9749 3.6251 14.9459 3.60639 14.9141 3.5943C14.8822 3.5822 14.8481 3.577 14.8141 3.57905H13.1811C13.1471 3.577 13.113 3.5822 13.0812 3.5943C13.0493 3.60639 13.0204 3.6251 12.9963 3.6492C12.9722 3.6733 12.9535 3.70224 12.9414 3.7341C12.9293 3.76596 12.9241 3.80003 12.9261 3.83405V5.46705C12.9205 5.54119 12.944 5.61461 12.9916 5.67174C13.0392 5.72886 13.1072 5.7652 13.1811 5.77305Z" fill="#222222"/>
<path d="M11.3269 9.21106C11.3609 9.2131 11.395 9.2079 11.4269 9.19581C11.4587 9.18372 11.4877 9.165 11.5118 9.14091C11.5359 9.11681 11.5546 9.08787 11.5667 9.05601C11.5788 9.02414 11.584 8.99008 11.5819 8.95606V7.32306C11.584 7.28904 11.5788 7.25497 11.5667 7.22311C11.5546 7.19125 11.5359 7.16231 11.5118 7.13821C11.4877 7.11412 11.4587 7.0954 11.4269 7.08331C11.395 7.07122 11.3609 7.06602 11.3269 7.06806H9.69391C9.65989 7.06602 9.62582 7.07122 9.59396 7.08331C9.5621 7.0954 9.53316 7.11412 9.50907 7.13821C9.48497 7.16231 9.46625 7.19125 9.45416 7.22311C9.44207 7.25497 9.43687 7.28904 9.43891 7.32306V8.95606C9.43687 8.99008 9.44207 9.02414 9.45416 9.05601C9.46625 9.08787 9.48497 9.11681 9.50907 9.14091C9.53316 9.165 9.5621 9.18372 9.59396 9.19581C9.62582 9.2079 9.65989 9.2131 9.69391 9.21106H11.3269Z" fill="#222222"/>
<path d="M16.6679 5.77305H18.3009C18.3349 5.77509 18.369 5.76989 18.4008 5.7578C18.4327 5.7457 18.4616 5.72699 18.4857 5.70289C18.5098 5.67879 18.5285 5.64986 18.5406 5.61799C18.5527 5.58613 18.5579 5.55207 18.5559 5.51805V3.83405C18.5579 3.80003 18.5527 3.76596 18.5406 3.7341C18.5285 3.70224 18.5098 3.6733 18.4857 3.6492C18.4616 3.6251 18.4327 3.60639 18.4008 3.5943C18.369 3.5822 18.3349 3.577 18.3009 3.57905H16.6679C16.6339 3.577 16.5998 3.5822 16.5679 3.5943C16.5361 3.60639 16.5071 3.6251 16.483 3.6492C16.4589 3.6733 16.4402 3.70224 16.4281 3.7341C16.416 3.76596 16.4108 3.80003 16.4129 3.83405V5.46705C16.4052 5.50453 16.4061 5.54325 16.4154 5.58034C16.4248 5.61744 16.4423 5.65196 16.4668 5.68135C16.4913 5.71073 16.5221 5.73423 16.5569 5.75011C16.5917 5.76598 16.6296 5.77382 16.6679 5.77305Z" fill="#222222"/>
</svg>
