<svg width="268" height="41" viewBox="0 0 268 41" fill="none" xmlns="http://www.w3.org/2000/svg">
<path d="M155.39 11.076C155.746 11.076 156.064 11.016 156.344 10.896C156.624 10.776 156.86 10.608 157.052 10.392C157.248 10.176 157.396 9.918 157.496 9.618C157.6 9.318 157.652 8.988 157.652 8.628V3.402H158.81V8.628C158.81 9.124 158.73 9.584 158.57 10.008C158.414 10.432 158.188 10.8 157.892 11.112C157.6 11.42 157.242 11.662 156.818 11.838C156.394 12.014 155.918 12.102 155.39 12.102C154.862 12.102 154.386 12.014 153.962 11.838C153.538 11.662 153.178 11.42 152.882 11.112C152.586 10.8 152.358 10.432 152.198 10.008C152.042 9.584 151.964 9.124 151.964 8.628V3.402H153.122V8.622C153.122 8.982 153.172 9.312 153.272 9.612C153.376 9.912 153.524 10.17 153.716 10.386C153.912 10.602 154.15 10.772 154.43 10.896C154.714 11.016 155.034 11.076 155.39 11.076ZM160.406 12V5.922H161.042C161.194 5.922 161.29 5.996 161.33 6.144L161.408 6.768C161.632 6.492 161.882 6.266 162.158 6.09C162.438 5.914 162.762 5.826 163.13 5.826C163.542 5.826 163.874 5.94 164.126 6.168C164.382 6.396 164.566 6.704 164.678 7.092C164.762 6.872 164.872 6.682 165.008 6.522C165.148 6.362 165.304 6.23 165.476 6.126C165.648 6.022 165.83 5.946 166.022 5.898C166.218 5.85 166.416 5.826 166.616 5.826C166.936 5.826 167.22 5.878 167.468 5.982C167.72 6.082 167.932 6.23 168.104 6.426C168.28 6.622 168.414 6.864 168.506 7.152C168.598 7.436 168.644 7.762 168.644 8.13V12H167.576V8.13C167.576 7.654 167.472 7.294 167.264 7.05C167.056 6.802 166.754 6.678 166.358 6.678C166.182 6.678 166.014 6.71 165.854 6.774C165.698 6.834 165.56 6.924 165.44 7.044C165.32 7.164 165.224 7.316 165.152 7.5C165.084 7.68 165.05 7.89 165.05 8.13V12H163.982V8.13C163.982 7.642 163.884 7.278 163.688 7.038C163.492 6.798 163.206 6.678 162.83 6.678C162.566 6.678 162.32 6.75 162.092 6.894C161.868 7.034 161.662 7.226 161.474 7.47V12H160.406ZM174.485 12H174.011C173.907 12 173.823 11.984 173.759 11.952C173.695 11.92 173.653 11.852 173.633 11.748L173.513 11.184C173.353 11.328 173.197 11.458 173.045 11.574C172.893 11.686 172.733 11.782 172.565 11.862C172.397 11.938 172.217 11.996 172.025 12.036C171.837 12.076 171.627 12.096 171.395 12.096C171.159 12.096 170.937 12.064 170.729 12C170.525 11.932 170.347 11.832 170.195 11.7C170.043 11.568 169.921 11.402 169.829 11.202C169.741 10.998 169.697 10.758 169.697 10.482C169.697 10.242 169.763 10.012 169.895 9.792C170.027 9.568 170.239 9.37 170.531 9.198C170.827 9.026 171.213 8.886 171.689 8.778C172.165 8.666 172.747 8.602 173.435 8.586V8.112C173.435 7.64 173.333 7.284 173.129 7.044C172.929 6.8 172.631 6.678 172.235 6.678C171.975 6.678 171.755 6.712 171.575 6.78C171.399 6.844 171.245 6.918 171.113 7.002C170.985 7.082 170.873 7.156 170.777 7.224C170.685 7.288 170.593 7.32 170.501 7.32C170.429 7.32 170.365 7.302 170.309 7.266C170.257 7.226 170.215 7.178 170.183 7.122L169.991 6.78C170.327 6.456 170.689 6.214 171.077 6.054C171.465 5.894 171.895 5.814 172.367 5.814C172.707 5.814 173.009 5.87 173.273 5.982C173.537 6.094 173.759 6.25 173.939 6.45C174.119 6.65 174.255 6.892 174.347 7.176C174.439 7.46 174.485 7.772 174.485 8.112V12ZM171.713 11.346C171.901 11.346 172.073 11.328 172.229 11.292C172.385 11.252 172.531 11.198 172.667 11.13C172.807 11.058 172.939 10.972 173.063 10.872C173.191 10.772 173.315 10.658 173.435 10.53V9.264C172.943 9.28 172.525 9.32 172.181 9.384C171.837 9.444 171.557 9.524 171.341 9.624C171.125 9.724 170.967 9.842 170.867 9.978C170.771 10.114 170.723 10.266 170.723 10.434C170.723 10.594 170.749 10.732 170.801 10.848C170.853 10.964 170.923 11.06 171.011 11.136C171.099 11.208 171.203 11.262 171.323 11.298C171.443 11.33 171.573 11.346 171.713 11.346ZM180.349 5.826C180.713 5.826 181.049 5.888 181.357 6.012C181.665 6.132 181.931 6.308 182.155 6.54C182.379 6.768 182.553 7.052 182.677 7.392C182.805 7.728 182.869 8.112 182.869 8.544C182.869 8.712 182.851 8.824 182.815 8.88C182.779 8.936 182.711 8.964 182.611 8.964H178.567C178.575 9.348 178.627 9.682 178.723 9.966C178.819 10.25 178.951 10.488 179.119 10.68C179.287 10.868 179.487 11.01 179.719 11.106C179.951 11.198 180.211 11.244 180.499 11.244C180.767 11.244 180.997 11.214 181.189 11.154C181.385 11.09 181.553 11.022 181.693 10.95C181.833 10.878 181.949 10.812 182.041 10.752C182.137 10.688 182.219 10.656 182.287 10.656C182.375 10.656 182.443 10.69 182.491 10.758L182.791 11.148C182.659 11.308 182.501 11.448 182.317 11.568C182.133 11.684 181.935 11.78 181.723 11.856C181.515 11.932 181.299 11.988 181.075 12.024C180.851 12.064 180.629 12.084 180.409 12.084C179.989 12.084 179.601 12.014 179.245 11.874C178.893 11.73 178.587 11.522 178.327 11.25C178.071 10.974 177.871 10.634 177.727 10.23C177.583 9.826 177.511 9.362 177.511 8.838C177.511 8.414 177.575 8.018 177.703 7.65C177.835 7.282 178.023 6.964 178.267 6.696C178.511 6.424 178.809 6.212 179.161 6.06C179.513 5.904 179.909 5.826 180.349 5.826ZM180.373 6.612C179.857 6.612 179.451 6.762 179.155 7.062C178.859 7.358 178.675 7.77 178.603 8.298H181.909C181.909 8.05 181.875 7.824 181.807 7.62C181.739 7.412 181.639 7.234 181.507 7.086C181.375 6.934 181.213 6.818 181.021 6.738C180.833 6.654 180.617 6.612 180.373 6.612ZM183.996 12V5.922H184.632C184.784 5.922 184.88 5.996 184.92 6.144L184.998 6.768C185.222 6.492 185.472 6.266 185.748 6.09C186.028 5.914 186.352 5.826 186.72 5.826C187.132 5.826 187.464 5.94 187.716 6.168C187.972 6.396 188.156 6.704 188.268 7.092C188.352 6.872 188.462 6.682 188.598 6.522C188.738 6.362 188.894 6.23 189.066 6.126C189.238 6.022 189.42 5.946 189.612 5.898C189.808 5.85 190.006 5.826 190.206 5.826C190.526 5.826 190.81 5.878 191.058 5.982C191.31 6.082 191.522 6.23 191.694 6.426C191.87 6.622 192.004 6.864 192.096 7.152C192.188 7.436 192.234 7.762 192.234 8.13V12H191.166V8.13C191.166 7.654 191.062 7.294 190.854 7.05C190.646 6.802 190.344 6.678 189.948 6.678C189.772 6.678 189.604 6.71 189.444 6.774C189.288 6.834 189.15 6.924 189.03 7.044C188.91 7.164 188.814 7.316 188.742 7.5C188.674 7.68 188.64 7.89 188.64 8.13V12H187.572V8.13C187.572 7.642 187.474 7.278 187.278 7.038C187.082 6.798 186.796 6.678 186.42 6.678C186.156 6.678 185.91 6.75 185.682 6.894C185.458 7.034 185.252 7.226 185.064 7.47V12H183.996ZM193.612 14.058V5.922H194.248C194.4 5.922 194.496 5.996 194.536 6.144L194.626 6.864C194.886 6.548 195.182 6.294 195.514 6.102C195.85 5.91 196.236 5.814 196.672 5.814C197.02 5.814 197.336 5.882 197.62 6.018C197.904 6.15 198.146 6.348 198.346 6.612C198.546 6.872 198.7 7.196 198.808 7.584C198.916 7.972 198.97 8.418 198.97 8.922C198.97 9.37 198.91 9.788 198.79 10.176C198.67 10.56 198.498 10.894 198.274 11.178C198.05 11.458 197.774 11.68 197.446 11.844C197.122 12.004 196.756 12.084 196.348 12.084C195.972 12.084 195.65 12.022 195.382 11.898C195.118 11.774 194.884 11.598 194.68 11.37V14.058H193.612ZM196.318 6.678C195.97 6.678 195.664 6.758 195.4 6.918C195.14 7.078 194.9 7.304 194.68 7.596V10.536C194.876 10.8 195.09 10.986 195.322 11.094C195.558 11.202 195.82 11.256 196.108 11.256C196.672 11.256 197.106 11.054 197.41 10.65C197.714 10.246 197.866 9.67 197.866 8.922C197.866 8.526 197.83 8.186 197.758 7.902C197.69 7.618 197.59 7.386 197.458 7.206C197.326 7.022 197.164 6.888 196.972 6.804C196.78 6.72 196.562 6.678 196.318 6.678ZM199.993 12V5.922H200.605C200.721 5.922 200.801 5.944 200.845 5.988C200.889 6.032 200.919 6.108 200.935 6.216L201.007 7.164C201.215 6.74 201.471 6.41 201.775 6.174C202.083 5.934 202.443 5.814 202.855 5.814C203.023 5.814 203.175 5.834 203.311 5.874C203.447 5.91 203.573 5.962 203.689 6.03L203.551 6.828C203.523 6.928 203.461 6.978 203.365 6.978C203.309 6.978 203.223 6.96 203.107 6.924C202.991 6.884 202.829 6.864 202.621 6.864C202.249 6.864 201.937 6.972 201.685 7.188C201.437 7.404 201.229 7.718 201.061 8.13V12H199.993ZM206.999 5.826C207.363 5.826 207.699 5.888 208.007 6.012C208.315 6.132 208.581 6.308 208.805 6.54C209.029 6.768 209.203 7.052 209.327 7.392C209.455 7.728 209.519 8.112 209.519 8.544C209.519 8.712 209.501 8.824 209.465 8.88C209.429 8.936 209.361 8.964 209.261 8.964H205.217C205.225 9.348 205.277 9.682 205.373 9.966C205.469 10.25 205.601 10.488 205.769 10.68C205.937 10.868 206.137 11.01 206.369 11.106C206.601 11.198 206.861 11.244 207.149 11.244C207.417 11.244 207.647 11.214 207.839 11.154C208.035 11.09 208.203 11.022 208.343 10.95C208.483 10.878 208.599 10.812 208.691 10.752C208.787 10.688 208.869 10.656 208.937 10.656C209.025 10.656 209.093 10.69 209.141 10.758L209.441 11.148C209.309 11.308 209.151 11.448 208.967 11.568C208.783 11.684 208.585 11.78 208.373 11.856C208.165 11.932 207.949 11.988 207.725 12.024C207.501 12.064 207.279 12.084 207.059 12.084C206.639 12.084 206.251 12.014 205.895 11.874C205.543 11.73 205.237 11.522 204.977 11.25C204.721 10.974 204.521 10.634 204.377 10.23C204.233 9.826 204.161 9.362 204.161 8.838C204.161 8.414 204.225 8.018 204.353 7.65C204.485 7.282 204.673 6.964 204.917 6.696C205.161 6.424 205.459 6.212 205.811 6.06C206.163 5.904 206.559 5.826 206.999 5.826ZM207.023 6.612C206.507 6.612 206.101 6.762 205.805 7.062C205.509 7.358 205.325 7.77 205.253 8.298H208.559C208.559 8.05 208.525 7.824 208.457 7.62C208.389 7.412 208.289 7.234 208.157 7.086C208.025 6.934 207.863 6.818 207.671 6.738C207.483 6.654 207.267 6.612 207.023 6.612ZM214.126 6.924C214.078 7.012 214.004 7.056 213.904 7.056C213.844 7.056 213.776 7.034 213.7 6.99C213.624 6.946 213.53 6.898 213.418 6.846C213.31 6.79 213.18 6.74 213.028 6.696C212.876 6.648 212.696 6.624 212.488 6.624C212.308 6.624 212.146 6.648 212.002 6.696C211.858 6.74 211.734 6.802 211.63 6.882C211.53 6.962 211.452 7.056 211.396 7.164C211.344 7.268 211.318 7.382 211.318 7.506C211.318 7.662 211.362 7.792 211.45 7.896C211.542 8 211.662 8.09 211.81 8.166C211.958 8.242 212.126 8.31 212.314 8.37C212.502 8.426 212.694 8.488 212.89 8.556C213.09 8.62 213.284 8.692 213.472 8.772C213.66 8.852 213.828 8.952 213.976 9.072C214.124 9.192 214.242 9.34 214.33 9.516C214.422 9.688 214.468 9.896 214.468 10.14C214.468 10.42 214.418 10.68 214.318 10.92C214.218 11.156 214.07 11.362 213.874 11.538C213.678 11.71 213.438 11.846 213.154 11.946C212.87 12.046 212.542 12.096 212.17 12.096C211.746 12.096 211.362 12.028 211.018 11.892C210.674 11.752 210.382 11.574 210.142 11.358L210.394 10.95C210.426 10.898 210.464 10.858 210.508 10.83C210.552 10.802 210.61 10.788 210.682 10.788C210.754 10.788 210.83 10.816 210.91 10.872C210.99 10.928 211.086 10.99 211.198 11.058C211.314 11.126 211.452 11.188 211.612 11.244C211.776 11.3 211.98 11.328 212.224 11.328C212.432 11.328 212.614 11.302 212.77 11.25C212.926 11.194 213.056 11.12 213.16 11.028C213.264 10.936 213.34 10.83 213.388 10.71C213.44 10.59 213.466 10.462 213.466 10.326C213.466 10.158 213.42 10.02 213.328 9.912C213.24 9.8 213.122 9.706 212.974 9.63C212.826 9.55 212.656 9.482 212.464 9.426C212.276 9.366 212.082 9.304 211.882 9.24C211.686 9.176 211.492 9.104 211.3 9.024C211.112 8.94 210.944 8.836 210.796 8.712C210.648 8.588 210.528 8.436 210.436 8.256C210.348 8.072 210.304 7.85 210.304 7.59C210.304 7.358 210.352 7.136 210.448 6.924C210.544 6.708 210.684 6.52 210.868 6.36C211.052 6.196 211.278 6.066 211.546 5.97C211.814 5.874 212.12 5.826 212.464 5.826C212.864 5.826 213.222 5.89 213.538 6.018C213.858 6.142 214.134 6.314 214.366 6.534L214.126 6.924ZM220.073 12H219.599C219.495 12 219.411 11.984 219.347 11.952C219.283 11.92 219.241 11.852 219.221 11.748L219.101 11.184C218.941 11.328 218.785 11.458 218.633 11.574C218.481 11.686 218.321 11.782 218.153 11.862C217.985 11.938 217.805 11.996 217.613 12.036C217.425 12.076 217.215 12.096 216.983 12.096C216.747 12.096 216.525 12.064 216.317 12C216.113 11.932 215.935 11.832 215.783 11.7C215.631 11.568 215.509 11.402 215.417 11.202C215.329 10.998 215.285 10.758 215.285 10.482C215.285 10.242 215.351 10.012 215.483 9.792C215.615 9.568 215.827 9.37 216.119 9.198C216.415 9.026 216.801 8.886 217.277 8.778C217.753 8.666 218.335 8.602 219.023 8.586V8.112C219.023 7.64 218.921 7.284 218.717 7.044C218.517 6.8 218.219 6.678 217.823 6.678C217.563 6.678 217.343 6.712 217.163 6.78C216.987 6.844 216.833 6.918 216.701 7.002C216.573 7.082 216.461 7.156 216.365 7.224C216.273 7.288 216.181 7.32 216.089 7.32C216.017 7.32 215.953 7.302 215.897 7.266C215.845 7.226 215.803 7.178 215.771 7.122L215.579 6.78C215.915 6.456 216.277 6.214 216.665 6.054C217.053 5.894 217.483 5.814 217.955 5.814C218.295 5.814 218.597 5.87 218.861 5.982C219.125 6.094 219.347 6.25 219.527 6.45C219.707 6.65 219.843 6.892 219.935 7.176C220.027 7.46 220.073 7.772 220.073 8.112V12ZM217.301 11.346C217.489 11.346 217.661 11.328 217.817 11.292C217.973 11.252 218.119 11.198 218.255 11.13C218.395 11.058 218.527 10.972 218.651 10.872C218.779 10.772 218.903 10.658 219.023 10.53V9.264C218.531 9.28 218.113 9.32 217.769 9.384C217.425 9.444 217.145 9.524 216.929 9.624C216.713 9.724 216.555 9.842 216.455 9.978C216.359 10.114 216.311 10.266 216.311 10.434C216.311 10.594 216.337 10.732 216.389 10.848C216.441 10.964 216.511 11.06 216.599 11.136C216.687 11.208 216.791 11.262 216.911 11.298C217.031 11.33 217.161 11.346 217.301 11.346Z" fill="#EC0000"/>
<path d="M166.382 26.804C166.349 26.0561 166.137 25.3272 165.763 24.679L162.404 18.861C162.152 18.4239 161.972 17.9487 161.873 17.454L161.733 17.697C161.324 18.4045 161.109 19.207 161.109 20.024C161.109 20.8409 161.324 21.6435 161.733 22.351L164.42 27.006C164.828 27.7136 165.043 28.5164 165.043 29.3335C165.043 30.1506 164.828 30.9533 164.42 31.661L164.28 31.904C164.18 31.4093 164.001 30.9341 163.749 30.497L161.289 26.236L159.718 23.515C159.466 23.0779 159.286 22.6027 159.187 22.108L159.047 22.351C158.64 23.0561 158.425 23.8557 158.423 24.6699C158.422 25.4841 158.634 26.2844 159.039 26.991L161.739 31.66C162.147 32.3676 162.362 33.1704 162.362 33.9875C162.362 34.8046 162.147 35.6073 161.739 36.315L161.599 36.558C161.499 36.0633 161.32 35.5881 161.068 35.151L157.709 29.333C157.266 28.5661 157.051 27.6887 157.09 26.804C153.49 27.744 151.012 29.739 151.012 32.048C151.012 35.261 155.812 37.866 161.74 37.866C167.668 37.866 172.468 35.266 172.468 32.048C172.46 29.739 169.978 27.744 166.382 26.804ZM176.51 36.739C176.532 36.045 176.662 35.3587 176.893 34.704C178.056 35.2121 179.311 35.4794 180.581 35.49C182.455 35.49 183.503 34.89 183.503 33.697C183.503 32.528 182.737 31.984 180.843 31.158L179.819 30.714C177.925 29.888 176.635 28.82 176.635 26.684C176.635 24.384 178.227 22.916 181.491 22.916C182.744 22.9001 183.991 23.0975 185.179 23.5C185.135 24.1864 185.001 24.8641 184.779 25.515C183.718 25.1401 182.603 24.9428 181.479 24.931C179.726 24.931 178.92 25.616 178.92 26.684C178.92 27.732 179.706 28.336 181.12 28.941L182.208 29.404C184.767 30.492 185.835 31.641 185.835 33.595C185.835 35.912 184.082 37.504 180.656 37.504C179.234 37.556 177.819 37.2949 176.51 36.739ZM196.641 27.107V37.183H194.606L194.485 35.974C194.188 36.4512 193.766 36.8385 193.266 37.0942C192.765 37.3498 192.204 37.4642 191.644 37.425C188.984 37.425 187.211 35.491 187.211 32.105C187.211 28.558 189.105 26.543 192.833 26.543C194.125 26.5112 195.414 26.7017 196.642 27.106L196.641 27.107ZM194.424 34.885V28.557C193.898 28.4704 193.365 28.4299 192.832 28.436C190.532 28.436 189.467 29.847 189.467 32.104C189.467 34.159 190.293 35.61 192.267 35.61C193.047 35.6178 193.807 35.3624 194.425 34.885H194.424ZM207.986 30.412V37.183H205.769V30.795C205.769 29.203 205.245 28.437 203.028 28.437C202.44 28.4442 201.854 28.498 201.275 28.598V37.182H199.058V27.106C200.377 26.7733 201.728 26.5842 203.088 26.542C206.798 26.542 207.987 27.973 207.987 30.411L207.986 30.412ZM214.133 35.53C214.724 35.5326 215.31 35.4311 215.866 35.23C215.806 35.83 215.725 36.52 215.604 37.104C215.005 37.3296 214.369 37.4388 213.73 37.426C211.574 37.426 210.204 36.439 210.204 33.98V23.399C210.923 23.1837 211.67 23.0752 212.421 23.077V26.886H215.927C215.895 27.5205 215.829 28.1529 215.727 28.78H212.427V33.717C212.419 35.023 213.066 35.53 214.134 35.53H214.133ZM226.023 27.107V37.183H223.988L223.867 35.974C223.57 36.4512 223.148 36.8385 222.648 37.0942C222.147 37.3498 221.586 37.4642 221.026 37.425C218.366 37.425 216.593 35.491 216.593 32.105C216.593 28.558 218.487 26.543 222.215 26.543C223.506 26.5118 224.792 26.7022 226.019 27.106L226.023 27.107ZM223.806 34.885V28.557C223.28 28.4704 222.747 28.4299 222.214 28.436C219.914 28.436 218.849 29.847 218.849 32.104C218.849 34.159 219.675 35.61 221.649 35.61C222.429 35.6178 223.189 35.3624 223.807 34.885H223.806ZM237.368 30.412V37.183H235.151V30.795C235.151 29.203 234.627 28.437 232.41 28.437C231.822 28.4442 231.236 28.498 230.657 28.598V37.182H228.44V27.106C229.759 26.7733 231.11 26.5842 232.47 26.542C236.18 26.542 237.369 27.973 237.369 30.411L237.368 30.412ZM248.613 23.077V37.183H246.578L246.457 35.893C246.17 36.3946 245.747 36.8047 245.237 37.0757C244.727 37.3467 244.151 37.4675 243.575 37.424C240.915 37.424 239.142 35.49 239.142 32.104C239.142 28.557 241.036 26.542 244.764 26.542C245.318 26.5427 245.871 26.5966 246.416 26.703V23.378C247.127 23.1564 247.869 23.0543 248.614 23.076L248.613 23.077ZM246.413 34.845V28.639C245.83 28.5128 245.236 28.4458 244.64 28.439C242.44 28.439 241.396 29.809 241.396 32.107C241.396 34.162 242.222 35.613 244.196 35.613C245.003 35.6166 245.787 35.3453 246.419 34.844L246.413 34.845ZM259.754 32.87H252.681C252.963 34.663 254.011 35.53 255.981 35.53C257.204 35.5286 258.413 35.2676 259.528 34.764C259.448 35.348 259.328 36.114 259.186 36.779C258.158 37.2318 257.043 37.452 255.921 37.424C252.213 37.424 250.421 35.369 250.421 31.924C250.421 28.924 251.811 26.544 255.338 26.544C258.502 26.544 259.872 28.62 259.872 31.159C259.875 31.7313 259.837 32.3032 259.758 32.87H259.754ZM252.641 31.016H257.641C257.688 30.6782 257.659 30.3343 257.557 30.0089C257.455 29.6835 257.283 29.3847 257.051 29.1341C256.82 28.8835 256.536 28.6874 256.22 28.5597C255.904 28.4321 255.563 28.3762 255.223 28.396C253.652 28.396 252.826 29.303 252.644 31.016H252.641ZM267.519 26.623C267.525 27.2599 267.458 27.8955 267.319 28.517C266.763 28.4573 266.205 28.4303 265.647 28.436C265.101 28.4363 264.555 28.4767 264.015 28.557V37.182H261.798V27.106C263.027 26.7387 264.303 26.5488 265.587 26.542C266.232 26.5344 266.877 26.5615 267.519 26.623Z" fill="#EC0000"/>
<path d="M16.903 11.764H22.897C23.1357 11.764 23.3646 11.8588 23.5334 12.0276C23.7022 12.1964 23.797 12.4252 23.797 12.6639V29.751C23.7936 29.9368 23.8626 30.1166 23.9892 30.2526C24.1159 30.3886 24.2904 30.4702 24.476 30.48C24.5706 30.4808 24.6644 30.4622 24.7516 30.4255C24.8388 30.3887 24.9176 30.3346 24.9832 30.2664C25.0487 30.1981 25.0996 30.1172 25.1328 30.0286C25.1659 29.9399 25.1807 29.8455 25.176 29.751V25.8309C25.176 25.7749 25.1871 25.7195 25.2087 25.6678C25.2302 25.6161 25.2618 25.5691 25.3016 25.5297C25.3414 25.4903 25.3886 25.4591 25.4405 25.438C25.4924 25.417 25.548 25.4065 25.604 25.407H26.251C26.3069 25.4066 26.3624 25.4172 26.4142 25.4384C26.466 25.4595 26.5131 25.4907 26.5528 25.5301C26.5925 25.5695 26.624 25.6164 26.6454 25.668C26.6669 25.7197 26.678 25.775 26.678 25.8309V29.6689C26.678 31.9419 24.893 33.5259 21.441 33.5259C18.273 33.5259 16 32.2259 16 28.8959V27.119C14.862 31.098 12.263 33.535 8.89301 33.535C3.61501 33.535 0 28.9459 0 22.2469C0 15.5479 3.61501 10.959 8.89301 10.959C12.263 10.959 14.821 13.395 16 17.334V12.66C16.0011 12.4215 16.0968 12.1931 16.2661 12.0251C16.4354 11.8571 16.6645 11.7632 16.903 11.764ZM15.96 22.241C15.96 19.641 14.253 17.774 11.899 17.774C9.54502 17.774 7.83801 19.641 7.83801 22.241C7.83801 24.841 9.50402 26.7079 11.899 26.7079C14.294 26.7079 15.963 24.8 15.963 22.241H15.96Z" fill="#EC0000"/>
<path d="M75.975 26.3259C76.1087 26.343 76.2368 26.3901 76.3497 26.4637C76.4626 26.5373 76.5574 26.6355 76.627 26.7509C76.6965 26.8664 76.739 26.9961 76.7513 27.1303C76.7636 27.2645 76.7454 27.3998 76.698 27.5259C75.287 31.0619 71.106 33.5259 66.149 33.5259C59.234 33.5259 54.456 28.937 54.456 22.157C54.456 15.499 59.369 10.9509 66.313 10.9509C73.257 10.9509 77.802 15.499 77.802 22.239C77.802 22.575 77.802 23.059 77.774 23.496C77.7632 23.7261 77.6647 23.9433 77.4985 24.103C77.3324 24.2626 77.1114 24.3524 76.881 24.3539H62.497C63.025 26.5539 64.446 27.887 66.555 27.887C67.2202 27.9157 67.8809 27.7644 68.4673 27.449C69.0538 27.1336 69.5443 26.6658 69.887 26.095C69.9739 25.9416 70.1047 25.8177 70.2626 25.7393C70.4205 25.6608 70.5983 25.6315 70.773 25.655L75.975 26.3259ZM69.918 20.2499C69.8832 19.268 69.4722 18.3369 68.7701 17.6495C68.068 16.9621 67.1285 16.571 66.146 16.5569C64.156 16.5569 62.858 18.0189 62.453 20.2499H69.918Z" fill="#EC0000"/>
<path d="M30.545 16.164L37.856 19.21C38.0203 19.278 38.1608 19.3931 38.2598 19.5408C38.3587 19.6885 38.4117 19.8622 38.412 20.04V39.761C38.4127 39.9105 38.376 40.0578 38.3055 40.1896C38.2349 40.3214 38.1327 40.4335 38.0079 40.5159C37.8832 40.5982 37.7399 40.6483 37.591 40.6614C37.4421 40.6745 37.2923 40.6503 37.155 40.591L29.57 37.448C29.4063 37.3796 29.2664 37.2643 29.168 37.1166C29.0696 36.969 29.0171 36.7954 29.017 36.618V12.728C29.017 12.4938 29.11 12.2692 29.2756 12.1036C29.4412 11.938 29.6658 11.845 29.9 11.845H35.929C36.1632 11.845 36.3878 11.938 36.5534 12.1036C36.719 12.2692 36.812 12.4938 36.812 12.728V16.069C38.112 12.926 40.5121 11.04 43.7271 11.04C48.8851 11.04 52.456 15.626 52.456 22.328C52.456 29.03 48.9261 33.616 43.7271 33.616C42.9886 33.6199 42.2542 33.5054 41.552 33.277V17.05C41.5516 16.934 41.5284 16.8193 41.4836 16.7123C41.4389 16.6054 41.3735 16.5082 41.2913 16.4265C41.209 16.3448 41.1114 16.2801 41.0042 16.2361C40.8969 16.1921 40.782 16.1696 40.666 16.17L30.545 16.164Z" fill="#EC0000"/>
<path d="M65.913 1.84297L59.9 5.14299C59.7623 5.21834 59.6474 5.32925 59.5672 5.46416C59.487 5.59907 59.4444 5.75304 59.444 5.90999V9.08998C59.4442 9.24232 59.4841 9.39196 59.5597 9.52419C59.6354 9.65642 59.7441 9.76667 59.8753 9.84407C60.0065 9.92148 60.1556 9.96336 60.308 9.96562C60.4603 9.96789 60.6105 9.93046 60.744 9.85698L65.915 7.00597C66.0445 6.93647 66.1891 6.9001 66.336 6.9001C66.4829 6.9001 66.6275 6.93647 66.757 7.00597L71.928 9.85097C72.0613 9.92539 72.2118 9.9636 72.3645 9.96178C72.5171 9.95996 72.6666 9.91818 72.7981 9.84059C72.9296 9.76301 73.0385 9.65233 73.1139 9.51958C73.1893 9.38684 73.2287 9.23665 73.228 9.08397V5.91896C73.2282 5.76225 73.1862 5.60838 73.1065 5.47344C73.0268 5.3385 72.9123 5.22745 72.775 5.15197L66.762 1.85198C66.633 1.77808 66.4873 1.73844 66.3387 1.73687C66.19 1.73529 66.0435 1.77183 65.913 1.84297Z" fill="#EC0000"/>
<path d="M79.663 12.876V7.41296C79.6634 7.27568 79.6957 7.14038 79.7573 7.0177C79.8189 6.89502 79.9081 6.7883 80.018 6.70596L85.478 2.61996C85.631 2.50699 85.8159 2.44538 86.006 2.44397H91.79C92.0242 2.44397 92.2488 2.53698 92.4144 2.70258C92.58 2.86817 92.673 3.09278 92.673 3.32697V23.443C92.6734 23.5592 92.6509 23.6743 92.6067 23.7818C92.5625 23.8892 92.4975 23.987 92.4155 24.0693C92.3334 24.1516 92.2359 24.2169 92.1286 24.2614C92.0213 24.306 91.9062 24.3289 91.79 24.3289H85.773C85.538 24.3289 85.3127 24.2356 85.1465 24.0695C84.9804 23.9033 84.887 23.6779 84.887 23.443V10.798L81.068 13.598C80.9355 13.6951 80.7785 13.7534 80.6146 13.7662C80.4508 13.779 80.2866 13.7458 80.1406 13.6703C79.9945 13.5949 79.8725 13.4802 79.7881 13.3391C79.7038 13.1981 79.6604 13.0363 79.663 12.8719V12.876Z" fill="#EC0000"/>
<path d="M94.876 12.876V7.41296C94.8764 7.27567 94.9086 7.14033 94.9702 7.01764C95.0318 6.89494 95.1211 6.78825 95.231 6.70596L100.691 2.61996C100.844 2.50636 101.029 2.44468 101.219 2.44397H107.009C107.243 2.44397 107.468 2.53698 107.633 2.70258C107.799 2.86817 107.892 3.09278 107.892 3.32697V23.443C107.892 23.5592 107.87 23.6743 107.826 23.7818C107.781 23.8892 107.716 23.987 107.634 24.0693C107.552 24.1516 107.455 24.2169 107.348 24.2614C107.24 24.306 107.125 24.3289 107.009 24.3289H100.986C100.869 24.3299 100.752 24.3075 100.644 24.2632C100.535 24.2188 100.437 24.1533 100.354 24.0705C100.27 23.9877 100.205 23.8893 100.16 23.7809C100.115 23.6724 100.092 23.5562 100.093 23.4389V10.798L96.28 13.598C96.1475 13.6951 95.9904 13.7534 95.8266 13.7662C95.6627 13.779 95.4985 13.7458 95.3525 13.6703C95.2065 13.5949 95.0845 13.4802 95.0001 13.3391C94.9157 13.1981 94.8724 13.0363 94.875 12.8719L94.876 12.876Z" fill="#EC0000"/>
<path d="M129.893 6.5C129.893 6.22386 129.669 6 129.393 6C129.117 6 128.893 6.22386 128.893 6.5V35.5C128.893 35.7761 129.117 36 129.393 36C129.669 36 129.893 35.7761 129.893 35.5V6.5Z" fill="#D8D8D8"/>
</svg>
