<svg xmlns="http://www.w3.org/2000/svg" version="1.1" xmlns:xlink="http://www.w3.org/1999/xlink" xmlns:svgjs="http://svgjs.dev/svgjs" width="1000" height="750" viewBox="0 0 1000 750"><rect width="1000" height="750" fill="#ffffff"></rect><g transform="matrix(0.834,0,0,0.834,82.49454545454546,312.8589597700933)"><svg viewBox="0 0 396 59" data-background-color="#ffffff" preserveAspectRatio="xMidYMid meet" height="148" width="1000" xmlns="http://www.w3.org/2000/svg" xmlns:xlink="http://www.w3.org/1999/xlink"><g id="tight-bounds" transform="matrix(1,0,0,1,0.2400000000000091,0.20316752191081378)"><svg viewBox="0 0 395.52 58.59356153142631" height="58.59356153142631" width="395.52"><g><svg viewBox="0 0 482.07355421657337 71.41587394230929" height="58.59356153142631" width="395.52"><g transform="matrix(1,0,0,1,86.55355421657336,19.677421084041953)"><svg viewBox="0 0 395.52 32.061031774225384" height="32.061031774225384" width="395.52"><g id="textblocktransform"><svg viewBox="0 0 395.52 32.061031774225384" height="32.061031774225384" width="395.52" id="textblock"><g><svg viewBox="0 0 395.52 32.061031774225384" height="32.061031774225384" width="395.52"><g transform="matrix(1,0,0,1,0,0)"><svg width="395.52" viewBox="1.9000000953674316 -38.400001525878906 483.6600036621094 38.989715576171875" height="32.061031774225384" data-palette-color="#ff5858"><g class="undefined-text-0" data-fill-palette-color="primary" id="text-0"><path d="M21.92-37.38L21.92-37.38Q26.88-37.38 31.01-36.13L31.01-36.13Q32.81-35.57 34.03-34.89L34.03-34.89 33.47-28.37 31.86-28.37Q31.86-31.08 29.2-32.71L29.2-32.71Q26.37-34.45 21.41-34.45L21.41-34.45Q14.99-34.45 10.79-30.13L10.79-30.13Q6.62-25.78 6.62-19.26L6.62-19.26Q6.62-12.35 10.47-7.54L10.47-7.54Q13.09-4.3 17.09-3.03L17.09-3.03Q19.14-2.37 21.75-2.37 24.37-2.37 26.39-2.67 28.42-2.98 29.71-3.66L29.71-3.66Q32.25-5 32.25-8.2L32.25-8.2 33.86-8.2 34.2-1.9Q29.96 0.56 21.68 0.56L21.68 0.56Q12.55 0.56 7.1-4.74L7.1-4.74Q1.9-9.79 1.9-17.77L1.9-17.77Q1.9-26.61 8.06-32.18L8.06-32.18Q13.75-37.38 21.92-37.38ZM39.89-34.74L39.89-36.82 51.85-36.82 51.85-34.74 48.17-34.18 48.17-2.64 51.85-2.08 51.85 0 39.89 0 39.89-2.08 43.65-2.64 43.65-34.18 39.89-34.74ZM57.42-36.82L88.52-36.82 89.11-28.98 86.91-28.98 85.66-33.86 75.24-33.86 75.24-2.64 80.61-2.08 80.61 0 65.35 0 65.35-2.08 70.67-2.64 70.67-33.86 60.3-33.86 58.98-28.98 56.83-28.98 57.42-36.82ZM91.94-34.74L91.94-36.82 105.19-36.82 105.19-34.74 100.97-34.18 109.86-17.94 117.47-34.18 113.44-34.74 113.44-36.82 124.77-36.82 124.77-34.74 121.01-34.28 111.39-14.97 111.39-2.64 115.64-2.08 115.64 0 102.68 0 102.68-2.08 106.85-2.64 106.85-14.94 95.28-34.18 91.94-34.74Z" fill="#ff5858" data-fill-palette-color="primary"></path><path d="M150.6 0L150.6-2.08 153.97-2.64 150.11-12.13 135.46-12.13 131.63-2.64 135.07-2.08 135.07 0 124.6 0 124.6-2.08 128.46-2.64 141.27-34.33 140.25-36.74 144.2-38.4 158.8-2.64 162.73-2.08 162.73 0 150.6 0ZM142.81-30.76L136.61-15.09 149.04-15.09 142.81-30.76ZM177.16 0L164.05 0 164.05-2.08 167.76-2.64 167.76-34.18 164.05-34.74 164.05-36.82 176.09-36.82Q186.49-36.82 189.37-31.2L189.37-31.2Q190.44-29.13 190.44-26.21 190.44-23.29 189.48-21.04 188.51-18.8 186.61-17.24L186.61-17.24Q182.68-13.96 175.28-13.96L175.28-13.96 172.35-13.96 172.35-2.64 177.16-2.08 177.16 0ZM175.5-33.86L172.35-33.86 172.35-16.55 175.96-16.55Q180.82-16.55 183.39-19.14L183.39-19.14Q185.66-21.48 185.66-25.46L185.66-25.46Q185.66-29.57 183.48-31.59L183.48-31.59Q181.07-33.86 175.5-33.86L175.5-33.86ZM217.32 0L217.32-2.08 220.69-2.64 216.83-12.13 202.18-12.13 198.35-2.64 201.79-2.08 201.79 0 191.32 0 191.32-2.08 195.18-2.64 207.99-34.33 206.97-36.74 210.92-38.4 225.52-2.64 229.45-2.08 229.45 0 217.32 0ZM209.53-30.76L203.33-15.09 215.76-15.09 209.53-30.76ZM256.74-31.23L256.74-31.23Q257.4-29.54 257.4-27.39 257.4-25.24 256.73-23.49 256.06-21.73 254.79-20.46L254.79-20.46Q252.37-18.04 247.69-17.07L247.69-17.07 248.13-17.87 257.77-3.22 259.48-2.47 262.92-2.08 262.92 0 254.55 0 243.56-17.55 245.61-16.67 239.07-16.67 239.07-2.64 242.73-2.08 242.73 0 230.77 0 230.77-2.08 234.55-2.64 234.55-34.18 230.77-34.74 230.77-36.82 242.8-36.82Q254.5-36.82 256.74-31.23ZM243.05-33.86L239.07-33.86 239.07-19.31 242.68-19.31Q250.59-19.31 252.25-23.93L252.25-23.93Q252.77-25.32 252.77-26.94 252.77-28.56 252.3-29.86 251.84-31.15 250.74-32.03L250.74-32.03Q248.47-33.86 243.05-33.86L243.05-33.86ZM265.58-36.82L296.68-36.82 297.27-28.98 295.07-28.98 293.83-33.86 283.4-33.86 283.4-2.64 288.77-2.08 288.77 0 273.51 0 273.51-2.08 278.84-2.64 278.84-33.86 268.46-33.86 267.14-28.98 264.99-28.98 265.58-36.82ZM324.24 0L309.77-30.71Q309.77-30.71 308.74-2.64L308.74-2.64 312.14-2.08 312.14 0 302 0 302-2.08 305.47-2.64 307.23-34.18 303.79-34.74 303.79-36.82 312.14-36.82 325.25-8.23 338.45-36.82 346.1-36.82 346.1-34.74 342.43-34.18Q342.82-26.22 343.26-18.33 343.7-10.45 344.07-2.64L344.07-2.64 347.83-2.08 347.83 0 335.89 0 335.89-2.08 339.55-2.64 338.45-30.35 324.24 0ZM369.99-15.09L369.26-17.65 360.28-17.65 360.28-2.93 373.88-2.93 375.63-7.25 377.49-7.25 376.68 0 351.98 0 351.98-2.08 355.69-2.64 355.69-34.18 351.98-34.74 351.98-36.82 375.61-36.82 376.17-29.57 374.02-29.57 372.7-33.86 360.28-33.86 360.28-20.58 369.26-20.58 369.99-23.17 371.73-23.17 371.73-15.09 369.99-15.09ZM411.72 0L388.08-29.74 388.08-2.64 391.79-2.08 391.79 0 381.49 0 381.49-2.08 385.27-2.64 385.27-34.18 381.49-34.74 381.49-36.82 388.23-36.82 411.89-7.08 411.89-34.18 408.2-34.74 408.2-36.82 418.43-36.82 418.43-34.74 414.74-34.18 414.74 0 411.72 0ZM424.07-36.82L455.17-36.82 455.76-28.98 453.56-28.98 452.31-33.86 441.89-33.86 441.89-2.64 447.26-2.08 447.26 0 432 0 432-2.08 437.32-2.64 437.32-33.86 426.95-33.86 425.63-28.98 423.48-28.98 424.07-36.82ZM472.77-2.34L472.77-2.34Q474.58-2.34 476.05-2.7 477.53-3.05 478.6-3.81L478.6-3.81Q480.9-5.4 480.9-8.45L480.9-8.45Q480.9-11.04 479.22-12.7L479.22-12.7Q477.43-14.4 473.44-16.15 469.45-17.9 467.36-19.27 465.27-20.65 464.08-22.07L464.08-22.07Q461.91-24.56 461.91-28.1L461.91-28.1Q461.91-32.2 465.45-34.86L465.45-34.86Q468.74-37.38 473.43-37.38L473.43-37.38Q477.12-37.38 480.8-36.04L480.8-36.04Q482.34-35.42 483.59-34.69L483.59-34.69 482.73-28.17 480.68-28.17Q480.68-31.54 478.85-33.07 477.02-34.59 473.55-34.59L473.55-34.59Q468.77-34.59 467.01-31.47L467.01-31.47Q466.45-30.44 466.45-29.17 466.45-27.91 466.81-26.89 467.18-25.88 468.23-24.9L468.23-24.9Q470.28-22.92 475.94-20.56L475.94-20.56Q483.85-17.19 485.17-12.6L485.17-12.6Q485.56-11.16 485.56-9.53 485.56-7.91 485.01-6.46 484.46-5 483.51-3.87 482.56-2.73 481.3-1.9 480.05-1.07 478.63-0.54L478.63-0.54Q472.35 1.9 465.45-0.93L465.45-0.93Q462.93-1.98 461-3.49L461-3.49 462.03-10.5 464.1-10.5Q464.1-5.59 467.2-3.66L467.2-3.66Q469.33-2.34 472.77-2.34Z" fill="#ff5858" data-fill-palette-color="primary"></path></g></svg></g></svg></g></svg></g></svg></g><g><svg viewBox="0 0 71.41587394230929 71.41587394230929" height="71.41587394230929" width="71.41587394230929"><g><svg></svg></g><g id="icon-0"><svg viewBox="0 0 71.41587394230929 71.41587394230929" height="71.41587394230929" width="71.41587394230929"><g><path d="M0 35.708c0-19.721 15.987-35.708 35.708-35.708 19.721 0 35.708 15.987 35.708 35.708 0 19.721-15.987 35.708-35.708 35.708-19.721 0-35.708-15.987-35.708-35.708zM35.708 68.525c18.124 0 32.817-14.693 32.817-32.817 0-18.124-14.693-32.817-32.817-32.817-18.124 0-32.817 14.693-32.817 32.817 0 18.124 14.693 32.817 32.817 32.817z" data-fill-palette-color="accent" fill="#ff5858" stroke="transparent"></path></g><g transform="matrix(1,0,0,1,20.178044548058097,21.14502187351477)"><svg viewBox="0 0 31.059784846193093 29.125830195279743" height="29.125830195279743" width="31.059784846193093"><g><svg xmlns="http://www.w3.org/2000/svg" xmlns:xlink="http://www.w3.org/1999/xlink" version="1.1" x="0" y="0" viewBox="0 3.25 99.9749984741211 93.75" enable-background="new 0 0 100 100" xml:space="preserve" height="29.125830195279743" width="31.059784846193093" class="icon-s-0" data-fill-palette-color="accent" id="s-0"><g fill="#ff5858" data-fill-palette-color="accent"><path d="M76.807 73.834c-6.369 0-12.141 2.572-16.33 6.735 4.469 2.974 6.594 8.539 5.17 16.431h34.328C99.975 84.205 89.602 73.834 76.807 73.834z" fill="#ff5858" data-fill-palette-color="accent"></path><path d="M51.088 82.439C43.046 82.439 36.53 88.96 36.53 97h29.116C65.646 88.96 59.126 82.439 51.088 82.439z" fill="#ff5858" data-fill-palette-color="accent"></path></g><polygon points="86.682,8.988 86.682,3.25 67.216,3.25 67.216,8.988 54.658,8.988 54.675,11.671 54.671,11.671 54.671,50.426   60.847,56.482 60.847,15.357 67.496,15.357 67.496,67.202 73.672,67.202 73.672,15.357 80.333,15.357 80.333,67.202 86.509,67.202   86.509,15.357 93.605,15.357 93.605,71.563 99.975,77.113 99.975,8.988 " fill="#ff5858" data-fill-palette-color="accent"></polygon><g fill="#ff5858" data-fill-palette-color="accent"><path d="M51.084 56.997H21.633L18.368 97h11.793c0-11.539 9.388-20.925 20.927-20.925 1.51 0 2.98 0.167 4.4 0.473l0.503-0.497c1.522-1.512 3.187-2.818 4.95-3.945v-4.903L51.084 56.997z" fill="#ff5858" data-fill-palette-color="accent"></path><path d="M0 41.467V97h17.96 0.353V41.467L9.079 18.91 0 41.467zM13.874 50.455c0 2.547-2.064 4.615-4.619 4.615-2.55 0-4.615-2.068-4.615-4.615 0-2.55 2.064-4.614 4.615-4.614C11.81 45.841 13.874 47.905 13.874 50.455z" fill="#ff5858" data-fill-palette-color="accent"></path></g></svg></g></svg></g></svg></g></svg></g></svg></g><defs></defs></svg><rect width="395.52" height="58.59356153142631" fill="none" stroke="none" visibility="hidden"></rect></g></svg></g></svg>